<mxfile host="app.diagrams.net" agent="Mozilla/5.0 (X11; Linux x86_64) AppleWebKit/537.36 (KHTML, like Gecko) Chrome/127.0.0.0 Safari/537.36" version="24.7.4">
  <diagram name="Page-1" id="OKeiqZYvQmF2FV4mOiv7">
    <mxGraphModel dx="1034" dy="1180" grid="1" gridSize="10" guides="1" tooltips="1" connect="1" arrows="1" fold="1" page="1" pageScale="1" pageWidth="850" pageHeight="1100" math="0" shadow="0">
      <root>
        <mxCell id="0" />
        <mxCell id="1" parent="0" />
        <mxCell id="Q94E4b96K8RDokj_TLj6-2" value="" style="shape=image;verticalLabelPosition=bottom;labelBackgroundColor=default;verticalAlign=top;aspect=fixed;imageAspect=0;image=data:image/jpeg,/9j/4AAQSkZJRgABAQAAAQABAAD/2wCEAAkGBw8HBhMSBw8QFRUWDRQXFxcVFRkdFRceIB0WGiAYFhMkHyggGCYnJxcXITEhJSorLi4wFx8zODMsNygtLisBCgoKDQ0NGw8PGSsdHSU3LSsuLS0tNy0tLS4tLTgrLTctLS01LSstLS0tKy03LS0rLS0rKysrLS0tNy03LS0rK//AABEIAJwA4gMBIgACEQEDEQH/xAAcAAEAAgIDAQAAAAAAAAAAAAAABgcCBAEFCAP/xABFEAABAgIEBwsKBQQDAQAAAAAAAgMEBQEGERIHExYXMTV0IjI3U1RVY3OSosEUISMzQUJSgZHRFTRxcvAkUaHhOGGzCP/EABoBAQADAQEBAAAAAAAAAAAAAAADBQYEAQL/xAAhEQEAAgIDAAIDAQAAAAAAAAAAAzMFFAEEUQITETE0If/aAAwDAQACEQMRAD8Au44pooFtlBFI2t/k0YpvFb124RfOX4R/tJHF85Ofx8ErsoFlBDstuh7xzlt0NJBuxp9HseJhZQLKCHZbdD3hlt0PeG7GaPY8TGygWUEOy26HvDLboe8N2M0ex4mNlAsoIdlt0PeGW3Q94bsZo9jxMbKBZQQ7Lboe8Mtuh7w3YzR7HiY2i0h+WfQd8+UbXryaCccxG9av74+9yN8aXY8TcFJ5+08gp7Zhn8Tzf3zpc67wUhn+Tzf3xn+Tzf3wLvBSGf5PN/fGf5PN/fAu8FIZ/k8398Z/k8398C7wUhn+Tzf3xn+Tzf3wLvBSGf5PN/fGf5PN/fAu8FY1Dwp5W1gTC+SYu804u9f/ALFnAAABwrQVXO9cPdYWorQVXO9cPdYV2SrWuJta4AKFowAAAAAAAAAADSnmpntmdN00p5qZ7ZnSWG1FLUounSYGdOkwNUxvIAA8AAAAAAAAAABY+APhBRszvgemjzLgD4QUbM74HpoAAAOFaCsJ3rh7rCz1aCsJ3rh7rCuyVS0xNrSABQtIAAAcWnJ3EFVt6MYSttaLFEkUUkiKWWOOx04NuayxyWrTQ/c3RqCWL6yKXiX/AHgABGlfI155qZ7ZnTdNKeame2Z0lhtRS1KLp0mBnTpMDVMbyAAPAGYAwBmAMAZmAAAAWPgD4QUbM74Hpo8y4A+EFGzO+B6aAAADhWgrCd64e6ws9WgrCd64e6wrslUtMTa0gAULSAAAEllFZPIoFKPJnlXaN8RosSrOqW+rLHo2KjJ18IhPpp+KLSrFrbu/GdUSWvPr2/1I0R96104+kABxO4NKeame2Z02DXnmpntmdJYbUUtSi6dJgZ06TA1TG8gADx2UjlTk5mrcPDb5xy4enKu1EltVZZbi2lKS3u33bCm8ArCX6+pxvuw7ik/4oJ9/9CRbkPVtltpW5ciN19AO1mUlkVfmFJlq2FOt+81ZjKDXwl1Ul8uqRFOQcFDtrS3uVIR5yjqix7kurdDLYVZT5Q2mn52UHozC3wexnVfYDyeDMwAAACx8AfCCjZnfA9NHmXAHwgo2Z3wPTQAAAcK0FYTvXD3WFnq0FYTvXD3WFdkqlpibWkAChaQAAAsirWpG+roK3LFqzqdvq6C1x1ily1fDoa+fmWyLkor5+YbIuc/esdmN/mcgA4nc+RrzzUz2zOm6aU81M9szpLDailqUXTpMDOnSYGqY3kAAeJtgmnKZHXdlcSq6hVrSlezz2f6L5wm1RVXGr9DcMpKXEuX0XjymWZVvDHHyeDS1FNoiKE71S7cYB3lRcEUZB1hbfrBS0ltty9dSu2+r2UFi4W+D2M6r7FYUYWY2sM9hWGm0sIVGNX7luMX56P59Cz8LfB7GdV9gPKRgZmAAAAWPgD4QUbM74Hpo8y4A+EFGzO+B6aAAADhWgrCd64e6ws9WgrCd64e6wrslUtMTa0gAULSAAAH0aiHW/VOr7Z8zi0kRfX9jlxxTnrFLV+4ABL+PwAAjA0p5qZ7ZnTdNKeame2Z0lhtRS1KLp0mBnTpMDVMbyAAPAAAdpV6Mol07Yed3rcQ2pXyptLarthbgqwVYiIaGYfSpxuxKlWWFImYAwMzAAAALHwB8IKNmd8D00eZcAfCCjZnfA9NAAABwrQVXO9cPdYWorQVhO9cPdYV2SqWmJtaQAKFpAAAAAAAAAAADSnmpntmdN00p5qZ7ZnSWG1FLUounSYGdOkGqY3lgDMB4wBmAMAZgDAGYAwBmALEwB8IKNmd8D00eZcAfCCjZnfA9NAAABjZbQRiNqqmIjFOUuK3ThKCGMRc0VXpTURiPIsXaneYz7kUkfwk/aSOSSOt98jE8csZGJ45ZIIyYMQVH9a62i34lWGTcY045dQ4i98N4j0oku72fUdyNTxqxkanjVklREIWtSUKTSpPu3jnHpv3byb3w3vONKI3ex6jGRqeMWMjU8YskMZNGIGj+teab/cqig+rMQiIbvQ6kqT8SRpRvvd7HqM5Gp4xYyNTxiyQrmTDcTi3Hm6F/DSqi36ESwb1tfrM/GJjkoTiYm4m78xpRG72PW7kanjVjI1PGrO/cmLDabXHmvOu7vqPoZRkwZgW70c6hv9yhpRPjd7HqPZGp41Z8o2ojcTBqbpeXumrhJ4aLajWr0M4hSfiSoi0gr01OK2xMFQlKcTvXL/mWe60bzd7HqJZhYXlsR2GxmFheWxHYbLhB0OdT2YWF5bEdhsZhYXlsR2Gy4QBT2YWF5bEdhsZhYXlsR2Gy4QBT2YWF5bEdhsZhYXlsR2Gy4QBT2YWF5bEdhsZhYXlsR2Gy4QBT2YWF5bEdhsZhYXlsR2Gy4QBXdSsFrFUp1REw8S65Ti6U3VIo9pYgAAAACmJT/wAhHurc/wDMucgkHUl6HwkOTKl5GLU3TufaBA5HKWsIuEaO/HlLpbYopuJQvzesssFTZMiR4bFw8MpSkttU3b3VEnn9QY6HrQqNqbFpZU961KiL1Ml7ssw2ONzJ/HOJa3Tnx+io/nyA7+p3DNNer+xjV/h1jNnp8DarJUGY5XrjqpxaGlPUbu9/PObNTcHsTV+tbkXGxdD2Ma3fGUr/AFAhs8YlsZXOLVEojpi55/Rso9Gz8zPA5MH5fKJvi71GIZoWhtXuL9N9iRM1Bm0nrDELq5GstsxDl5alI9Ij26Dsqg1BdqvExflzyHm4ij/vGe3T9QIVgyqTDVzlD0XOnHVPqidypK94dngPa8ng5nQ4q27E3b31oNiCwcTaRRTjNWpiluFectVufSIO+wd1GeqjDRSIl5C8cvc/7AgOCGpbNYG3ImZOO3WY30baV+ahWm2n/BvV8agI2vyvxGmKjlJa/KMIp3H6vE9wa1RcqjJ3GYlxLl6Iv7k6CZ1CmUHXNyPqvFst47f41G8+XtA6HA4jF1wmEPinWWsX6hat55/afOoFV4JOFSNbxdN2FpoW1u9599JL6nVFi6vVsei4mLQ8l5vdKUn0lp826kx0ur+5MJbFtJaec9KhSfc/sBZAAAAAAAAAAAAAAAAAAAAAAAAB07VXINudqjG2EY9VHrDuAAAAAAAAAAAAAAAAAAAAAAAAAAAAAAAAAAAAH//Z;" vertex="1" parent="1">
          <mxGeometry x="160" y="290" width="188.33" height="130" as="geometry" />
        </mxCell>
        <mxCell id="Q94E4b96K8RDokj_TLj6-3" value="" style="shape=image;verticalLabelPosition=bottom;labelBackgroundColor=default;verticalAlign=top;aspect=fixed;imageAspect=0;image=https://www.sparkworks.net/wp-content/uploads/2021/04/sparkworks-roundlogo.png;" vertex="1" parent="1">
          <mxGeometry x="348.33" y="290" width="120" height="120" as="geometry" />
        </mxCell>
      </root>
    </mxGraphModel>
  </diagram>
</mxfile>
